<svg width="37" height="37" viewBox="0 0 37 37" fill="none" xmlns="http://www.w3.org/2000/svg">
<circle cx="18.5" cy="18.5" r="18.5" fill="#E8DFCC"/>
<path d="M12.36 13.08C12.3387 14.3173 12.3067 15.5013 12.264 16.632C12.2427 17.7627 12.232 18.7867 12.232 19.704C12.232 20.4933 12.2427 21.4 12.264 22.424C12.3067 23.448 12.3387 24.3547 12.36 25.144L14.92 25.816L14.376 27C13.8213 26.9573 13.256 26.936 12.68 26.936C12.1253 26.9147 11.2827 26.904 10.152 26.904C9.10667 26.904 8.28533 26.9147 7.688 26.936C7.112 26.9573 6.49333 26.9787 5.832 27L5.32 25.816L8.04 25.144C8.08267 24.0773 8.104 23.1493 8.104 22.36C8.12533 21.5707 8.12533 20.7067 8.104 19.768C8.104 19.2773 8.09333 18.84 8.072 18.456C8.072 18.072 8.06133 17.6453 8.04 17.176C8.01867 16.6853 7.976 16.0667 7.912 15.32L5.64 14.904L5.16 13.688C5.65067 13.6667 6.28 13.6347 7.048 13.592C7.83733 13.5493 8.69067 13.4853 9.608 13.4C10.5253 13.3147 11.4427 13.208 12.36 13.08ZM9.96 10.712C9.27733 10.712 8.69067 10.456 8.2 9.944C7.70933 9.432 7.464 8.80267 7.464 8.056C7.464 7.352 7.70933 6.744 8.2 6.232C8.69067 5.72 9.27733 5.464 9.96 5.464C10.6427 5.464 11.2293 5.72 11.72 6.232C12.2107 6.744 12.456 7.352 12.456 8.056C12.456 8.80267 12.2107 9.432 11.72 9.944C11.2293 10.456 10.6427 10.712 9.96 10.712ZM27.678 13.08C28.894 13.08 29.886 13.5387 30.654 14.456C31.4433 15.3733 31.8807 16.5573 31.966 18.008C31.9873 18.392 31.9873 19 31.966 19.832C31.9447 20.6427 31.9233 21.528 31.902 22.488C31.902 23.448 31.902 24.3333 31.902 25.144L34.302 25.816L33.79 27C33.2353 26.9573 32.606 26.936 31.902 26.936C31.198 26.9147 30.5047 26.904 29.822 26.904C28.99 26.904 28.2433 26.9147 27.582 26.936C26.9207 26.9573 26.3127 26.9787 25.758 27L25.342 25.816L27.678 25.144C27.6993 24.4187 27.7207 23.8107 27.742 23.32C27.7633 22.808 27.774 22.3067 27.774 21.816C27.7953 21.304 27.7953 20.7067 27.774 20.024C27.7527 18.7227 27.518 17.7733 27.07 17.176C26.622 16.5787 25.9607 16.184 25.086 15.992C24.1473 16.6107 23.4647 17.368 23.038 18.264C22.6113 19.16 22.4087 20.0133 22.43 20.824L21.246 19.416C21.3953 18.2 21.758 17.112 22.334 16.152C22.9313 15.192 23.6887 14.4453 24.606 13.912C25.5233 13.3573 26.5473 13.08 27.678 13.08ZM22.462 12.92C22.462 13.624 22.462 14.2 22.462 14.648C22.462 15.0747 22.4513 15.512 22.43 15.96C22.43 16.3867 22.4087 16.9627 22.366 17.688L22.494 25.144L24.83 25.816L24.414 27C23.6887 26.9573 23.006 26.936 22.366 26.936C21.726 26.9147 21.022 26.904 20.254 26.904C19.422 26.904 18.6967 26.9147 18.078 26.936C17.4807 26.9573 16.8727 26.9787 16.254 27L15.742 25.816L18.142 25.144C18.142 24.4613 18.1633 23.6613 18.206 22.744C18.27 21.8053 18.302 20.92 18.302 20.088C18.302 19.4693 18.2913 18.9573 18.27 18.552C18.27 18.1253 18.2487 17.688 18.206 17.24C18.1633 16.7707 18.0993 16.1627 18.014 15.416L15.518 14.808L15.134 13.592C16.3927 13.528 17.5767 13.4427 18.686 13.336C19.8167 13.208 21.0753 13.0693 22.462 12.92Z" fill="#4B3935"/>
</svg>
