<svg width="37" height="37" viewBox="0 0 37 37" fill="none" xmlns="http://www.w3.org/2000/svg">
<circle cx="18.5" cy="18.5" r="18.5" fill="#E8DFCC"/>
<path d="M23.376 18.128V20.816C22.9067 20.7307 22.4907 20.6667 22.128 20.624C21.7653 20.56 21.3707 20.5173 20.944 20.496C20.5173 20.4533 19.9627 20.432 19.28 20.432C18.768 20.432 18.2453 20.4427 17.712 20.464C17.2 20.4853 16.5813 20.5493 15.856 20.656V18.288C16.5813 18.352 17.2 18.4053 17.712 18.448C18.2453 18.4693 18.768 18.48 19.28 18.48C19.9627 18.48 20.5173 18.4693 20.944 18.448C21.3707 18.4053 21.7653 18.3627 22.128 18.32C22.4907 18.256 22.9067 18.192 23.376 18.128ZM24.304 15.472C24.2827 16.112 24.2507 16.7733 24.208 17.456C24.1867 18.1387 24.176 18.8213 24.176 19.504C24.176 20.1653 24.1867 20.8373 24.208 21.52C24.2507 22.2027 24.2827 22.8533 24.304 23.472H22.544L21.488 20.144V18.768L22.544 15.472H24.304ZM10.8 28.784L13.52 28.112C13.5627 26.5973 13.5947 25.104 13.616 23.632C13.6587 22.16 13.68 20.7093 13.68 19.28C13.68 17.8293 13.6693 16.3787 13.648 14.928C13.6267 13.4773 13.584 12.1333 13.52 10.896L10.64 10.128L11.056 8.88C11.6107 8.90133 12.1013 8.92267 12.528 8.944C12.9547 8.96533 13.424 8.98667 13.936 9.008C14.448 9.008 15.0773 9.008 15.824 9.008C16.464 9.008 17.3173 9.008 18.384 9.008C19.472 9.008 20.6133 9.008 21.808 9.008C23.024 8.98667 24.176 8.96533 25.264 8.944C26.352 8.92267 27.2267 8.90133 27.888 8.88C27.8453 9.98933 27.792 11.0667 27.728 12.112C27.6853 13.1573 27.6533 14.192 27.632 15.216H25.584L25.008 11.824C24.2613 11.504 23.344 11.28 22.256 11.152C21.168 11.0027 19.8667 11.024 18.352 11.216C18.352 12.6027 18.3413 13.8827 18.32 15.056C18.32 16.208 18.3093 17.1893 18.288 18C18.288 18.7893 18.288 19.3227 18.288 19.6C18.288 21.008 18.288 22.192 18.288 23.152C18.288 24.0907 18.288 24.9227 18.288 25.648C18.3093 26.3733 18.3307 27.0987 18.352 27.824L22.224 28.816L21.808 30C21.104 29.9787 20.4747 29.968 19.92 29.968C19.3653 29.9467 18.7787 29.936 18.16 29.936C17.5413 29.9147 16.7627 29.904 15.824 29.904C14.9707 29.904 14.192 29.9147 13.488 29.936C12.784 29.936 12.0267 29.9573 11.216 30L10.8 28.784Z" fill="#4B3935"/>
</svg>
