<svg width="123" height="37" viewBox="0 0 123 37" fill="none" xmlns="http://www.w3.org/2000/svg">
<circle cx="104.5" cy="18.5" r="18.5" fill="#E8DFCC"/>
<path d="M98.36 13.08C98.3387 14.3173 98.3067 15.5013 98.264 16.632C98.2427 17.7627 98.232 18.7867 98.232 19.704C98.232 20.4933 98.2427 21.4 98.264 22.424C98.3067 23.448 98.3387 24.3547 98.36 25.144L100.92 25.816L100.376 27C99.8213 26.9573 99.256 26.936 98.68 26.936C98.1253 26.9147 97.2827 26.904 96.152 26.904C95.1067 26.904 94.2853 26.9147 93.688 26.936C93.112 26.9573 92.4933 26.9787 91.832 27L91.32 25.816L94.04 25.144C94.0827 24.0773 94.104 23.1493 94.104 22.36C94.1253 21.5707 94.1253 20.7067 94.104 19.768C94.104 19.2773 94.0933 18.84 94.072 18.456C94.072 18.072 94.0613 17.6453 94.04 17.176C94.0187 16.6853 93.976 16.0667 93.912 15.32L91.64 14.904L91.16 13.688C91.6507 13.6667 92.28 13.6347 93.048 13.592C93.8373 13.5493 94.6907 13.4853 95.608 13.4C96.5253 13.3147 97.4427 13.208 98.36 13.08ZM95.96 10.712C95.2773 10.712 94.6907 10.456 94.2 9.944C93.7093 9.432 93.464 8.80267 93.464 8.056C93.464 7.352 93.7093 6.744 94.2 6.232C94.6907 5.72 95.2773 5.464 95.96 5.464C96.6427 5.464 97.2293 5.72 97.72 6.232C98.2107 6.744 98.456 7.352 98.456 8.056C98.456 8.80267 98.2107 9.432 97.72 9.944C97.2293 10.456 96.6427 10.712 95.96 10.712ZM113.678 13.08C114.894 13.08 115.886 13.5387 116.654 14.456C117.443 15.3733 117.881 16.5573 117.966 18.008C117.987 18.392 117.987 19 117.966 19.832C117.945 20.6427 117.923 21.528 117.902 22.488C117.902 23.448 117.902 24.3333 117.902 25.144L120.302 25.816L119.79 27C119.235 26.9573 118.606 26.936 117.902 26.936C117.198 26.9147 116.505 26.904 115.822 26.904C114.99 26.904 114.243 26.9147 113.582 26.936C112.921 26.9573 112.313 26.9787 111.758 27L111.342 25.816L113.678 25.144C113.699 24.4187 113.721 23.8107 113.742 23.32C113.763 22.808 113.774 22.3067 113.774 21.816C113.795 21.304 113.795 20.7067 113.774 20.024C113.753 18.7227 113.518 17.7733 113.07 17.176C112.622 16.5787 111.961 16.184 111.086 15.992C110.147 16.6107 109.465 17.368 109.038 18.264C108.611 19.16 108.409 20.0133 108.43 20.824L107.246 19.416C107.395 18.2 107.758 17.112 108.334 16.152C108.931 15.192 109.689 14.4453 110.606 13.912C111.523 13.3573 112.547 13.08 113.678 13.08ZM108.462 12.92C108.462 13.624 108.462 14.2 108.462 14.648C108.462 15.0747 108.451 15.512 108.43 15.96C108.43 16.3867 108.409 16.9627 108.366 17.688L108.494 25.144L110.83 25.816L110.414 27C109.689 26.9573 109.006 26.936 108.366 26.936C107.726 26.9147 107.022 26.904 106.254 26.904C105.422 26.904 104.697 26.9147 104.078 26.936C103.481 26.9573 102.873 26.9787 102.254 27L101.742 25.816L104.142 25.144C104.142 24.4613 104.163 23.6613 104.206 22.744C104.27 21.8053 104.302 20.92 104.302 20.088C104.302 19.4693 104.291 18.9573 104.27 18.552C104.27 18.1253 104.249 17.688 104.206 17.24C104.163 16.7707 104.099 16.1627 104.014 15.416L101.518 14.808L101.134 13.592C102.393 13.528 103.577 13.4427 104.686 13.336C105.817 13.208 107.075 13.0693 108.462 12.92Z" fill="#4B3935"/>
<circle cx="18.5" cy="18.5" r="18.5" fill="#E8DFCC"/>
<path d="M23.376 18.128V20.816C22.9067 20.7307 22.4907 20.6667 22.128 20.624C21.7653 20.56 21.3707 20.5173 20.944 20.496C20.5173 20.4533 19.9627 20.432 19.28 20.432C18.768 20.432 18.2453 20.4427 17.712 20.464C17.2 20.4853 16.5813 20.5493 15.856 20.656V18.288C16.5813 18.352 17.2 18.4053 17.712 18.448C18.2453 18.4693 18.768 18.48 19.28 18.48C19.9627 18.48 20.5173 18.4693 20.944 18.448C21.3707 18.4053 21.7653 18.3627 22.128 18.32C22.4907 18.256 22.9067 18.192 23.376 18.128ZM24.304 15.472C24.2827 16.112 24.2507 16.7733 24.208 17.456C24.1867 18.1387 24.176 18.8213 24.176 19.504C24.176 20.1653 24.1867 20.8373 24.208 21.52C24.2507 22.2027 24.2827 22.8533 24.304 23.472H22.544L21.488 20.144V18.768L22.544 15.472H24.304ZM10.8 28.784L13.52 28.112C13.5627 26.5973 13.5947 25.104 13.616 23.632C13.6587 22.16 13.68 20.7093 13.68 19.28C13.68 17.8293 13.6693 16.3787 13.648 14.928C13.6267 13.4773 13.584 12.1333 13.52 10.896L10.64 10.128L11.056 8.88C11.6107 8.90133 12.1013 8.92267 12.528 8.944C12.9547 8.96533 13.424 8.98667 13.936 9.008C14.448 9.008 15.0773 9.008 15.824 9.008C16.464 9.008 17.3173 9.008 18.384 9.008C19.472 9.008 20.6133 9.008 21.808 9.008C23.024 8.98667 24.176 8.96533 25.264 8.944C26.352 8.92267 27.2267 8.90133 27.888 8.88C27.8453 9.98933 27.792 11.0667 27.728 12.112C27.6853 13.1573 27.6533 14.192 27.632 15.216H25.584L25.008 11.824C24.2613 11.504 23.344 11.28 22.256 11.152C21.168 11.0027 19.8667 11.024 18.352 11.216C18.352 12.6027 18.3413 13.8827 18.32 15.056C18.32 16.208 18.3093 17.1893 18.288 18C18.288 18.7893 18.288 19.3227 18.288 19.6C18.288 21.008 18.288 22.192 18.288 23.152C18.288 24.0907 18.288 24.9227 18.288 25.648C18.3093 26.3733 18.3307 27.0987 18.352 27.824L22.224 28.816L21.808 30C21.104 29.9787 20.4747 29.968 19.92 29.968C19.3653 29.9467 18.7787 29.936 18.16 29.936C17.5413 29.9147 16.7627 29.904 15.824 29.904C14.9707 29.904 14.192 29.9147 13.488 29.936C12.784 29.936 12.0267 29.9573 11.216 30L10.8 28.784Z" fill="#4B3935"/>
<circle cx="61.5" cy="18.5" r="18.5" fill="#E8DFCC"/>
<rect x="51" y="8" width="22" height="22" rx="5" stroke="#4B3935" stroke-width="2"/>
<circle cx="62.5" cy="19.5" r="4.5" stroke="#4B3935" stroke-width="2"/>
<circle cx="68" cy="12" r="1.5" stroke="#4B3935"/>
</svg>
